<?xml version="1.0"?>
<!DOCTYPE svg PUBLIC "-//W3C//DTD SVG 1.1//EN" "http://www.w3.org/Graphics/SVG/1.1/DTD/svg11.dtd">
<svg width="168.504mm" height="195.771698011mm" viewBox="0 0 168.504 195.771698011" xmlns="http://www.w3.org/2000/svg" version="1.1">
<g id="Sketch" transform="translate(-121.245126,9.707747) scale(1,-1)">
<path id="Sketch_w0000"  d="M 258.497126 -82.278102 L 280.997126 -82.278102 L 280.997126 -94.078102 L 258.497126 -94.078102 L 258.497126 -82.278102 " stroke="#000000" stroke-width="0.35 px" style="stroke-width:0.35;stroke-miterlimit:4;stroke-dasharray:none;fill:none;fill-rule: evenodd "/>
<circle cx="283.997126" cy="-88.178102" r="1.2" stroke="#000000" stroke-width="0.35 px" style="stroke-width:0.35;stroke-miterlimit:4;stroke-dasharray:none;fill:none"/>
<circle cx="255.497126" cy="-88.178102" r="1.2" stroke="#000000" stroke-width="0.35 px" style="stroke-width:0.35;stroke-miterlimit:4;stroke-dasharray:none;fill:none"/>
<path id="Sketch_w0003"  d="M 152.497126 -94.078102 L 129.997126 -94.078102 L 129.997126 -82.278102 L 152.497126 -82.278102 L 152.497126 -94.078102 " stroke="#000000" stroke-width="0.35 px" style="stroke-width:0.35;stroke-miterlimit:4;stroke-dasharray:none;fill:none;fill-rule: evenodd "/>
<circle cx="126.997126" cy="-88.178102" r="1.2" stroke="#000000" stroke-width="0.35 px" style="stroke-width:0.35;stroke-miterlimit:4;stroke-dasharray:none;fill:none"/>
<circle cx="155.497126" cy="-88.178102" r="1.2" stroke="#000000" stroke-width="0.35 px" style="stroke-width:0.35;stroke-miterlimit:4;stroke-dasharray:none;fill:none"/>
<path id="Sketch_w0006"  d="M 245.722601617 -6.56303127126 L 266.114526825 2.9458796179 L 271.101422314 -7.74855226913 L 250.709497105 -17.2574631583 L 245.722601617 -6.56303127126 " stroke="#000000" stroke-width="0.35 px" style="stroke-width:0.35;stroke-miterlimit:4;stroke-dasharray:none;fill:none;fill-rule: evenodd "/>
<circle cx="271.326897931" cy="-1.13348154039" r="1.2" stroke="#000000" stroke-width="0.35 px" style="stroke-width:0.35;stroke-miterlimit:4;stroke-dasharray:none;fill:none"/>
<circle cx="245.497126" cy="-13.178102" r="1.2" stroke="#000000" stroke-width="0.35 px" style="stroke-width:0.35;stroke-miterlimit:4;stroke-dasharray:none;fill:none"/>
<path id="Sketch_w0009"  d="M 160.284754895 -17.2574631583 L 139.892829686 -7.74855226913 L 144.879725175 2.9458796179 L 165.271650383 -6.56303127126 L 160.284754895 -17.2574631583 " stroke="#000000" stroke-width="0.35 px" style="stroke-width:0.35;stroke-miterlimit:4;stroke-dasharray:none;fill:none;fill-rule: evenodd "/>
<circle cx="139.667354069" cy="-1.13348154039" r="1.2" stroke="#000000" stroke-width="0.35 px" style="stroke-width:0.35;stroke-miterlimit:4;stroke-dasharray:none;fill:none"/>
<circle cx="165.497126" cy="-13.178102" r="1.2" stroke="#000000" stroke-width="0.35 px" style="stroke-width:0.35;stroke-miterlimit:4;stroke-dasharray:none;fill:none"/>
<path id="Sketch_w0012"  d="M 271.101422314 -168.607651731 L 266.114526825 -179.302083618 L 245.722601617 -169.793172729 L 250.709497105 -159.098740842 L 271.101422314 -168.607651731 " stroke="#000000" stroke-width="0.35 px" style="stroke-width:0.35;stroke-miterlimit:4;stroke-dasharray:none;fill:none;fill-rule: evenodd "/>
<circle cx="271.326897931" cy="-175.22272246" r="1.2" stroke="#000000" stroke-width="0.35 px" style="stroke-width:0.35;stroke-miterlimit:4;stroke-dasharray:none;fill:none"/>
<circle cx="245.497126" cy="-163.178102" r="1.2" stroke="#000000" stroke-width="0.35 px" style="stroke-width:0.35;stroke-miterlimit:4;stroke-dasharray:none;fill:none"/>
<path id="Sketch_w0015"  d="M 144.879725175 -179.302083618 L 139.892829686 -168.607651731 L 160.284754895 -159.098740842 L 165.271650383 -169.793172729 L 144.879725175 -179.302083618 " stroke="#000000" stroke-width="0.35 px" style="stroke-width:0.35;stroke-miterlimit:4;stroke-dasharray:none;fill:none;fill-rule: evenodd "/>
<circle cx="139.667354069" cy="-175.22272246" r="1.2" stroke="#000000" stroke-width="0.35 px" style="stroke-width:0.35;stroke-miterlimit:4;stroke-dasharray:none;fill:none"/>
<circle cx="165.497126" cy="-163.178102" r="1.2" stroke="#000000" stroke-width="0.35 px" style="stroke-width:0.35;stroke-miterlimit:4;stroke-dasharray:none;fill:none"/>
<path id="Sketch_w0018"  d="M 275.097126 -101.178102 A 13.0 13.0 0 1 1 275.097126 -75.178102 A 29.5944552098 29.5944552098 0 0 0 268.754796029 -16.6767853014 A 13.0 13.0 0 1 1 257.766721223 6.88721716159 A 123.68039674 123.68039674 0 0 0 153.227530777 6.88721716159 A 13.0 13.0 0 0 1 142.239455971 -16.6767853014 A 31.0825267922 31.0825267922 0 0 0 135.897126 -75.178102 A 13.0 13.0 0 1 1 135.897126 -101.178102 A 29.5944553091 29.5944553091 0 0 0 142.239455971 -159.679418699 A 13.0 13.0 0 0 1 153.227530777 -183.243421162 A 123.680623475 123.680623475 0 0 0 257.766721223 -183.243421162 A 13.0 13.0 0 1 1 268.754796029 -159.679418699 A 31.0825219691 31.0825219691 0 0 0 275.097126 -101.178102 " stroke="#000000" stroke-width="0.35 px" style="stroke-width:0.35;stroke-miterlimit:4;stroke-dasharray:none;fill:none;fill-rule: evenodd "/>
<title>body</title>
</g>
</svg>