<?xml version="1.0"?>
<!DOCTYPE svg PUBLIC "-//W3C//DTD SVG 1.1//EN" "http://www.w3.org/Graphics/SVG/1.1/DTD/svg11.dtd">
<svg width="183.804mm" height="221.071698011mm" viewBox="0 0 183.804 221.071698011" xmlns="http://www.w3.org/2000/svg" version="1.1">
<g id="Sketch" transform="translate(-113.595126,5.635293) scale(1,-1)">
<path id="Sketch_w0000"  d="M 265.997126 -99.0005560762 L 288.497126 -99.0005560762 L 288.497126 -110.800556076 L 265.997126 -110.800556076 L 265.997126 -99.0005560762 " stroke="#000000" stroke-width="0.35 px" style="stroke-width:0.35;stroke-miterlimit:4;stroke-dasharray:none;fill:none;fill-rule: evenodd "/>
<circle cx="291.497126" cy="-104.900556076" r="1.2" stroke="#000000" stroke-width="0.35 px" style="stroke-width:0.35;stroke-miterlimit:4;stroke-dasharray:none;fill:none"/>
<circle cx="262.997126" cy="-104.900556076" r="1.2" stroke="#000000" stroke-width="0.35 px" style="stroke-width:0.35;stroke-miterlimit:4;stroke-dasharray:none;fill:none"/>
<path id="Sketch_w0003"  d="M 144.997126 -110.800556076 L 122.497126 -110.800556076 L 122.497126 -99.0005560762 L 144.997126 -99.0005560762 L 144.997126 -110.800556076 " stroke="#000000" stroke-width="0.35 px" style="stroke-width:0.35;stroke-miterlimit:4;stroke-dasharray:none;fill:none;fill-rule: evenodd "/>
<circle cx="119.497126" cy="-104.900556076" r="1.2" stroke="#000000" stroke-width="0.35 px" style="stroke-width:0.35;stroke-miterlimit:4;stroke-dasharray:none;fill:none"/>
<circle cx="147.997126" cy="-104.900556076" r="1.2" stroke="#000000" stroke-width="0.35 px" style="stroke-width:0.35;stroke-miterlimit:4;stroke-dasharray:none;fill:none"/>
<path id="Sketch_w0006"  d="M 245.722601617 -10.7854853474 L 266.114526825 -1.27657445826 L 271.101422314 -11.9710063453 L 250.709497105 -21.4799172345 L 245.722601617 -10.7854853474 " stroke="#000000" stroke-width="0.35 px" style="stroke-width:0.35;stroke-miterlimit:4;stroke-dasharray:none;fill:none;fill-rule: evenodd "/>
<circle cx="271.326897931" cy="-5.35593561655" r="1.2" stroke="#000000" stroke-width="0.35 px" style="stroke-width:0.35;stroke-miterlimit:4;stroke-dasharray:none;fill:none"/>
<circle cx="245.497126" cy="-17.4005560762" r="1.2" stroke="#000000" stroke-width="0.35 px" style="stroke-width:0.35;stroke-miterlimit:4;stroke-dasharray:none;fill:none"/>
<path id="Sketch_w0009"  d="M 160.284754895 -21.4799172345 L 139.892829686 -11.9710063453 L 144.879725175 -1.27657445826 L 165.271650383 -10.7854853474 L 160.284754895 -21.4799172345 " stroke="#000000" stroke-width="0.35 px" style="stroke-width:0.35;stroke-miterlimit:4;stroke-dasharray:none;fill:none;fill-rule: evenodd "/>
<circle cx="139.667354069" cy="-5.35593561655" r="1.2" stroke="#000000" stroke-width="0.35 px" style="stroke-width:0.35;stroke-miterlimit:4;stroke-dasharray:none;fill:none"/>
<circle cx="165.497126" cy="-17.4005560762" r="1.2" stroke="#000000" stroke-width="0.35 px" style="stroke-width:0.35;stroke-miterlimit:4;stroke-dasharray:none;fill:none"/>
<path id="Sketch_w0012"  d="M 271.101422314 -197.830105807 L 266.114526825 -208.524537694 L 245.722601617 -199.015626805 L 250.709497105 -188.321194918 L 271.101422314 -197.830105807 " stroke="#000000" stroke-width="0.35 px" style="stroke-width:0.35;stroke-miterlimit:4;stroke-dasharray:none;fill:none;fill-rule: evenodd "/>
<circle cx="271.326897931" cy="-204.445176536" r="1.2" stroke="#000000" stroke-width="0.35 px" style="stroke-width:0.35;stroke-miterlimit:4;stroke-dasharray:none;fill:none"/>
<circle cx="245.497126" cy="-192.400556076" r="1.2" stroke="#000000" stroke-width="0.35 px" style="stroke-width:0.35;stroke-miterlimit:4;stroke-dasharray:none;fill:none"/>
<path id="Sketch_w0015"  d="M 144.879725175 -208.524537694 L 139.892829686 -197.830105807 L 160.284754895 -188.321194918 L 165.271650383 -199.015626805 L 144.879725175 -208.524537694 " stroke="#000000" stroke-width="0.35 px" style="stroke-width:0.35;stroke-miterlimit:4;stroke-dasharray:none;fill:none;fill-rule: evenodd "/>
<circle cx="139.667354069" cy="-204.445176536" r="1.2" stroke="#000000" stroke-width="0.35 px" style="stroke-width:0.35;stroke-miterlimit:4;stroke-dasharray:none;fill:none"/>
<circle cx="165.497126" cy="-192.400556076" r="1.2" stroke="#000000" stroke-width="0.35 px" style="stroke-width:0.35;stroke-miterlimit:4;stroke-dasharray:none;fill:none"/>
<path id="Sketch_w0018"  d="M 282.597126 -117.900556076 A 13.0 13.0 0 0 1 282.597126 -91.9005560762 A 36.8500002203 36.8500002203 0 0 0 268.754796029 -20.8992393775 A 13.0 13.0 0 0 1 257.766721223 2.66476308542 A 123.680232444 123.680232444 0 0 0 153.227530777 2.66476308541 A 13.0 13.0 0 1 1 142.239455971 -20.8992393775 A 36.8500002203 36.8500002203 0 0 0 128.397126 -91.9005560762 A 13.0 13.0 0 1 1 128.397126 -117.900556076 A 36.8500002203 36.8500002203 0 0 0 142.239455971 -188.901872775 A 13.0 13.0 0 0 1 153.227530777 -212.465875238 A 123.680232444 123.680232444 0 0 0 257.766721223 -212.465875238 A 13.0 13.0 0 1 1 268.754796029 -188.901872775 A 36.8500002203 36.8500002203 0 0 0 282.597126 -117.900556076 " stroke="#000000" stroke-width="0.35 px" style="stroke-width:0.35;stroke-miterlimit:4;stroke-dasharray:none;fill:none;fill-rule: evenodd "/>
<title>body</title>
</g>
</svg>