<?xml version="1.0"?>
<!DOCTYPE svg PUBLIC "-//W3C//DTD SVG 1.1//EN" "http://www.w3.org/Graphics/SVG/1.1/DTD/svg11.dtd">
<svg width="48.7446487356mm" height="20.9557774262mm" viewBox="0 0 48.7446487356 20.9557774262" xmlns="http://www.w3.org/2000/svg" version="1.1">
<g id="Sketch" transform="translate(10.966760,10.477889) scale(1,-1)">
<path id="Sketch_w0000"  d="M -1.34952638935e-15 7.0 L 16.5 7.0 L 16.5 10.0 L 19.5 10.0 L 19.5 7.0 L 31.3 7.0 L 31.3 10.0 L 34.3 10.0 L 34.3 7.0 L 37.3 7.0 L 37.3 -7.0 L 34.3 -7.0 L 34.3 -10.0 " stroke="#0000ff" stroke-width="0.35 px" style="stroke-width:0.35;stroke-miterlimit:4;stroke-dasharray:none;fill:none;fill-rule: evenodd "/>
<path id="Sketch_w0001"  d="M 0.00175346767631 6.99999990241 A 10.5 7.0 9.2946680752e-07 1 1 9.68249794163e-16 -7.0 L 16.5 -7.0 L 16.5 -10.0 L 19.5 -10.0 L 19.5 -7.0 L 31.3 -7.0 L 31.3 -10.0 L 35.8 -10.0 " stroke="#0000ff" stroke-width="0.35 px" style="stroke-width:0.35;stroke-miterlimit:4;stroke-dasharray:none;fill:none;fill-rule: evenodd "/>
<circle cx="0.0" cy="-8.60267837055e-23" r="1.5" stroke="#0000ff" stroke-width="0.35 px" style="stroke-width:0.35;stroke-miterlimit:4;stroke-dasharray:none;fill:none"/>
<title>coxa</title>
</g>
</svg>