<?xml version="1.0"?>
<!DOCTYPE svg PUBLIC "-//W3C//DTD SVG 1.1//EN" "http://www.w3.org/Graphics/SVG/1.1/DTD/svg11.dtd">
<svg width="18.156mm" height="46.856mm" viewBox="0 0 18.156 46.856" xmlns="http://www.w3.org/2000/svg" version="1.1">
<g id="Sketch007" transform="translate(-32.555344,-19.851487) scale(1,-1)">
<path id="Sketch007_w0000"  d="M 47.5333435609 -32.0294872968 L 35.7333435609 -32.0294872968 L 35.7333435609 -54.5294872968 L 47.5333435609 -54.5294872968 L 47.5333435609 -32.0294872968 " stroke="#0000ff" stroke-width="0.35 px" style="stroke-width:0.35;stroke-miterlimit:4;stroke-dasharray:none;fill:none;fill-rule: evenodd "/>
<circle cx="41.6333435609" cy="-29.0294872968" r="1.2" stroke="#0000ff" stroke-width="0.35 px" style="stroke-width:0.35;stroke-miterlimit:4;stroke-dasharray:none;fill:none"/>
<circle cx="41.6333435609" cy="-57.5294872968" r="1.2" stroke="#0000ff" stroke-width="0.35 px" style="stroke-width:0.35;stroke-miterlimit:4;stroke-dasharray:none;fill:none"/>
<path id="Sketch007_w0003"  d="M 50.5333435609 -26.0294872968 L 47.5333435609 -26.0294872968 L 47.5333435609 -23.0294872968 L 50.5333435609 -23.0294872968 A 3.0 3.0 0 0 1 47.53334286 -20.0294872968 L 35.7333435525 -20.0294872968 A 3.0 3.0 0 0 1 32.7333435609 -23.0294872968 L 35.7333435609 -23.0294872968 L 35.7333435609 -26.0294872968 L 32.7333435609 -26.0294872968 L 32.7333435609 -60.5294872968 L 35.7333435609 -60.5294872968 L 35.7333435609 -63.5294872968 L 32.7333435609 -63.5294872968 A 3.0 3.0 0 0 1 35.7333439713 -66.5294872968 L 47.5333434907 -66.5294872968 A 3.0 3.0 0 0 1 50.5333435609 -63.5294872968 L 47.5333435609 -63.5294872968 L 47.5333435609 -60.5294872968 L 50.5333435609 -60.5294872968 L 50.5333435609 -26.0294872968 " stroke="#0000ff" stroke-width="0.35 px" style="stroke-width:0.35;stroke-miterlimit:4;stroke-dasharray:none;fill:none;fill-rule: evenodd "/>
<title>coxa_joint_down</title>
</g>
</svg>