<?xml version="1.0"?>
<!DOCTYPE svg PUBLIC "-//W3C//DTD SVG 1.1//EN" "http://www.w3.org/Graphics/SVG/1.1/DTD/svg11.dtd">
<svg width="18.156mm" height="46.856mm" viewBox="0 0 18.156 46.856" xmlns="http://www.w3.org/2000/svg" version="1.1">
<g id="Sketch006" transform="translate(-82.072947,-20.053634) scale(1,-1)">
<path id="Sketch006_w0000"  d="M 97.0509473593 -32.2316342559 L 85.2509473593 -32.2316342559 L 85.2509473593 -54.7316342559 L 97.0509473593 -54.7316342559 L 97.0509473593 -32.2316342559 " stroke="#0000ff" stroke-width="0.35 px" style="stroke-width:0.35;stroke-miterlimit:4;stroke-dasharray:none;fill:none;fill-rule: evenodd "/>
<circle cx="91.1509473593" cy="-29.2316342559" r="1.5" stroke="#0000ff" stroke-width="0.35 px" style="stroke-width:0.35;stroke-miterlimit:4;stroke-dasharray:none;fill:none"/>
<circle cx="91.1509473593" cy="-57.7316342559" r="1.5" stroke="#0000ff" stroke-width="0.35 px" style="stroke-width:0.35;stroke-miterlimit:4;stroke-dasharray:none;fill:none"/>
<path id="Sketch006_w0003"  d="M 100.050947359 -26.2316342559 L 97.0509473593 -26.2316342559 L 97.0509473593 -23.2316342559 L 100.050947359 -23.2316342559 A 3.0 3.0 0 0 1 97.050948003 -20.2316342559 L 85.2509478414 -20.2316342559 A 3.0 3.0 0 0 1 82.2509473593 -23.2316342559 L 85.2509473593 -23.2316342559 L 85.2509473593 -26.2316342559 L 82.2509473593 -26.2316342559 L 82.2509473593 -60.7316342559 L 85.2509473593 -60.7316342559 L 85.2509473593 -63.7316342559 L 82.2509473593 -63.7316342559 A 3.0 3.0 0 0 1 85.2509460729 -66.7316342559 L 97.0509470734 -66.7316342559 A 3.0 3.0 0 0 1 100.050947359 -63.7316342559 L 97.0509473593 -63.7316342559 L 97.0509473593 -60.7316342559 L 100.050947359 -60.7316342559 L 100.050947359 -26.2316342559 " stroke="#0000ff" stroke-width="0.35 px" style="stroke-width:0.35;stroke-miterlimit:4;stroke-dasharray:none;fill:none;fill-rule: evenodd "/>
<title>coxa_joint</title>
</g>
</svg>