<?xml version="1.0"?>
<!DOCTYPE svg PUBLIC "-//W3C//DTD SVG 1.1//EN" "http://www.w3.org/Graphics/SVG/1.1/DTD/svg11.dtd">
<svg width="18.156mm" height="46.856mm" viewBox="0 0 18.156 46.856" xmlns="http://www.w3.org/2000/svg" version="1.1">
<g id="Sketch006" transform="translate(-82.422058,-18.972976) scale(1,-1)">
<path id="Sketch006_w0000"  d="M 97.4000576376 -31.150975735 L 85.6000576376 -31.150975735 L 85.6000576376 -53.650975735 L 97.4000576376 -53.650975735 L 97.4000576376 -31.150975735 " stroke="#0000ff" stroke-width="0.35 px" style="stroke-width:0.35;stroke-miterlimit:4;stroke-dasharray:none;fill:none;fill-rule: evenodd "/>
<circle cx="91.5000576376" cy="-28.150975735" r="1.5" stroke="#0000ff" stroke-width="0.35 px" style="stroke-width:0.35;stroke-miterlimit:4;stroke-dasharray:none;fill:none"/>
<circle cx="91.5000576376" cy="-56.650975735" r="1.5" stroke="#0000ff" stroke-width="0.35 px" style="stroke-width:0.35;stroke-miterlimit:4;stroke-dasharray:none;fill:none"/>
<path id="Sketch006_w0003"  d="M 100.400057638 -25.150975735 L 97.4000576376 -25.150975735 L 97.4000576376 -22.150975735 L 100.400057638 -22.150975735 A 3.0 3.0 0 0 1 97.4000577428 -19.150975735 L 85.6000574785 -19.150975735 A 3.0 3.0 0 0 1 82.6000576376 -22.150975735 L 85.6000576376 -22.150975735 L 85.6000576376 -25.150975735 L 82.6000576376 -25.150975735 L 82.6000576376 -59.650975735 L 85.6000576376 -59.650975735 L 85.6000576376 -62.650975735 L 82.6000576376 -62.650975735 A 3.0 3.0 0 0 1 85.6000573206 -65.650975735 L 97.4000589306 -65.650975735 A 3.0 3.0 0 0 1 100.400057638 -62.650975735 L 97.4000576376 -62.650975735 L 97.4000576376 -59.650975735 L 100.400057638 -59.650975735 L 100.400057638 -25.150975735 " stroke="#0000ff" stroke-width="0.35 px" style="stroke-width:0.35;stroke-miterlimit:4;stroke-dasharray:none;fill:none;fill-rule: evenodd "/>
<title>coxa_joint_up</title>
</g>
</svg>