<?xml version="1.0"?>
<!DOCTYPE svg PUBLIC "-//W3C//DTD SVG 1.1//EN" "http://www.w3.org/Graphics/SVG/1.1/DTD/svg11.dtd">
<svg width="82.5771120555mm" height="12.6191590599mm" viewBox="0 0 82.5771120555 12.6191590599" xmlns="http://www.w3.org/2000/svg" version="1.1">
<g id="Sketch004" transform="translate(19.577950,15.859701) scale(1,-1)">
<circle cx="51.7106059254" cy="9.5501211023" r="3.5" stroke="#000000" stroke-width="0.35 px" style="stroke-width:0.35;stroke-miterlimit:4;stroke-dasharray:none;fill:none"/>
<circle cx="-8.28939407456" cy="9.5501211023" r="3.5" stroke="#000000" stroke-width="0.35 px" style="stroke-width:0.35;stroke-miterlimit:4;stroke-dasharray:none;fill:none"/>
<path id="Sketch004_w0002"  d="M 51.7106059254 4.0501211023 A 10.5 5.5 -5.68954917913e-14 0 1 51.7106059254 15.0501211023 L 31.4436377259 15.0501211023 L 31.4436377259 12.0501211023 L 28.4436377259 12.0501211023 L 28.4436377259 15.0501211023 L 18.1023040016 15.0501211023 L 16.3813009263 12.5928566854 L 13.9240365093 14.3138597607 L 14.4396945006 15.0501211023 L -8.28939407456 15.0501211023 A 10.5 5.5 2.27581967165e-14 0 1 -8.28939407456 4.0501211023 L 6.73558512676 4.0501211023 L 8.45658820207 6.50738551924 L 10.913852619 4.78638244393 L 10.3981946278 4.0501211023 L 28.4436377259 4.0501211023 L 28.4436377259 7.0501211023 L 31.4436377259 7.0501211023 L 31.4436377259 4.0501211023 L 51.7106059254 4.0501211023 " stroke="#000000" stroke-width="0.35 px" style="stroke-width:0.35;stroke-miterlimit:4;stroke-dasharray:none;fill:none;fill-rule: evenodd "/>
<circle cx="21.2292935468" cy="9.5501211023" r="1.5" stroke="#000000" stroke-width="0.35 px" style="stroke-width:0.35;stroke-miterlimit:4;stroke-dasharray:none;fill:none"/>
<circle cx="45.2106059254" cy="9.5501211023" r="1.2" stroke="#000000" stroke-width="0.35 px" style="stroke-width:0.35;stroke-miterlimit:4;stroke-dasharray:none;fill:none"/>
<circle cx="-1.78939407456" cy="9.5501211023" r="1.2" stroke="#000000" stroke-width="0.35 px" style="stroke-width:0.35;stroke-miterlimit:4;stroke-dasharray:none;fill:none"/>
<circle cx="58.2106059254" cy="9.5501211023" r="1.2" stroke="#000000" stroke-width="0.35 px" style="stroke-width:0.35;stroke-miterlimit:4;stroke-dasharray:none;fill:none"/>
<circle cx="-14.7893940746" cy="9.5501211023" r="1.2" stroke="#000000" stroke-width="0.35 px" style="stroke-width:0.35;stroke-miterlimit:4;stroke-dasharray:none;fill:none"/>
<title>femur_up</title>
</g>
</svg>