<?xml version="1.0"?>
<!DOCTYPE svg PUBLIC "-//W3C//DTD SVG 1.1//EN" "http://www.w3.org/Graphics/SVG/1.1/DTD/svg11.dtd">
<svg width="18.564mm" height="46.864mm" viewBox="0 0 18.564 46.864" xmlns="http://www.w3.org/2000/svg" version="1.1">
<g id="Sketch006" transform="translate(-80.461320,-24.730571) scale(1,-1)">
<path id="Sketch006_w0000"  d="M 95.8433198286 -36.9125705631 L 83.6433198286 -36.9125705631 L 83.6433198286 -59.4125705631 L 95.8433198286 -59.4125705631 L 95.8433198286 -36.9125705631 " stroke="#0000ff" stroke-width="0.35 px" style="stroke-width:0.35;stroke-miterlimit:4;stroke-dasharray:none;fill:none;fill-rule: evenodd "/>
<circle cx="89.7433198286" cy="-33.9125705631" r="1.5" stroke="#0000ff" stroke-width="0.35 px" style="stroke-width:0.35;stroke-miterlimit:4;stroke-dasharray:none;fill:none"/>
<circle cx="89.7433198286" cy="-62.4125705631" r="1.5" stroke="#0000ff" stroke-width="0.35 px" style="stroke-width:0.35;stroke-miterlimit:4;stroke-dasharray:none;fill:none"/>
<path id="Sketch006_w0003"  d="M 98.8433198286 -30.9125705631 L 95.8433198286 -30.9125705631 L 95.8433198286 -27.9125705631 L 98.8433198286 -27.9125705631 A 3.0 3.0 0 0 1 95.8433198286 -24.9125705631 L 83.6433195324 -24.9125705631 A 3.0 3.0 0 0 1 80.6433198286 -27.9125705631 L 83.6433198286 -27.9125705631 L 83.6433198286 -30.9125705631 L 80.6433198286 -30.9125705631 L 80.6433198286 -65.4125705631 L 83.6433198286 -65.4125705631 L 83.6433198286 -68.4125705631 L 80.6433198286 -68.4125705631 A 3.0 3.0 0 0 1 83.6433206677 -71.4125705631 L 95.8433182121 -71.4125705631 A 3.0 3.0 0 0 1 98.8433198286 -68.4125705631 L 95.8433198286 -68.4125705631 L 95.8433198286 -65.4125705631 L 98.8433198286 -65.4125705631 L 98.8433198286 -30.9125705631 " stroke="#0000ff" stroke-width="0.35 px" style="stroke-width:0.35;stroke-miterlimit:4;stroke-dasharray:none;fill:none;fill-rule: evenodd "/>
<title>joint_down</title>
</g>
</svg>