<?xml version="1.0"?>
<!DOCTYPE svg PUBLIC "-//W3C//DTD SVG 1.1//EN" "http://www.w3.org/Graphics/SVG/1.1/DTD/svg11.dtd">
<svg width="18.156mm" height="46.856mm" viewBox="0 0 18.156 46.856" xmlns="http://www.w3.org/2000/svg" version="1.1">
<g id="Sketch006" transform="translate(-74.844511,-24.064398) scale(1,-1)">
<path id="Sketch006_w0000"  d="M 89.8225108212 -36.2423976048 L 78.0225108212 -36.2423976048 L 78.0225108212 -58.7423976048 L 89.8225108212 -58.7423976048 L 89.8225108212 -36.2423976048 " stroke="#0000ff" stroke-width="0.35 px" style="stroke-width:0.35;stroke-miterlimit:4;stroke-dasharray:none;fill:none;fill-rule: evenodd "/>
<circle cx="83.9225108212" cy="-33.2423976048" r="1.5" stroke="#0000ff" stroke-width="0.35 px" style="stroke-width:0.35;stroke-miterlimit:4;stroke-dasharray:none;fill:none"/>
<circle cx="83.9225108212" cy="-61.7423976048" r="1.5" stroke="#0000ff" stroke-width="0.35 px" style="stroke-width:0.35;stroke-miterlimit:4;stroke-dasharray:none;fill:none"/>
<path id="Sketch006_w0003"  d="M 92.8225108212 -30.2423976048 L 89.8225108212 -30.2423976048 L 89.8225108212 -27.2423976048 L 92.8225108212 -27.2423976048 A 3.0 3.0 0 0 1 89.8225107583 -24.2423976048 L 78.0225102578 -24.2423976048 A 3.0 3.0 0 0 1 75.0225108212 -27.2423976048 L 78.0225108212 -27.2423976048 L 78.0225108212 -30.2423976048 L 75.0225108212 -30.2423976048 L 75.0225108212 -64.7423976048 L 78.0225108212 -64.7423976048 L 78.0225108212 -67.7423976048 L 75.0225108212 -67.7423976048 A 3.0 3.0 0 0 1 78.0225098648 -70.7423976048 L 89.8225120174 -70.7423976048 A 3.0 3.0 0 0 1 92.8225108212 -67.7423976048 L 89.8225108212 -67.7423976048 L 89.8225108212 -64.7423976048 L 92.8225108212 -64.7423976048 L 92.8225108212 -30.2423976048 " stroke="#0000ff" stroke-width="0.35 px" style="stroke-width:0.35;stroke-miterlimit:4;stroke-dasharray:none;fill:none;fill-rule: evenodd "/>
<title>joint_down</title>
</g>
</svg>