<?xml version="1.0"?>
<!DOCTYPE svg PUBLIC "-//W3C//DTD SVG 1.1//EN" "http://www.w3.org/Graphics/SVG/1.1/DTD/svg11.dtd">
<svg width="18.156mm" height="46.856mm" viewBox="0 0 18.156 46.856" xmlns="http://www.w3.org/2000/svg" version="1.1">
<g id="Sketch003" transform="translate(-18.117068,-15.879431) scale(1,-1)">
<path id="Sketch003_w0000"  d="M 33.0950681199 -28.0574312803 L 21.2950681199 -28.0574312803 L 21.2950681199 -50.5574312803 L 33.0950681199 -50.5574312803 L 33.0950681199 -28.0574312803 " stroke="#0000ff" stroke-width="0.35 px" style="stroke-width:0.35;stroke-miterlimit:4;stroke-dasharray:none;fill:none;fill-rule: evenodd "/>
<circle cx="27.1950681199" cy="-25.0574312803" r="1.5" stroke="#0000ff" stroke-width="0.35 px" style="stroke-width:0.35;stroke-miterlimit:4;stroke-dasharray:none;fill:none"/>
<circle cx="27.1950681199" cy="-53.5574312803" r="1.5" stroke="#0000ff" stroke-width="0.35 px" style="stroke-width:0.35;stroke-miterlimit:4;stroke-dasharray:none;fill:none"/>
<path id="Sketch003_w0003"  d="M 36.0950681199 -22.0574312803 L 33.0950681199 -22.0574312803 L 33.0950681199 -19.0574312803 L 36.0950681199 -19.0574312803 A 3.0 3.0 0 0 1 33.0950677953 -16.0574312803 L 21.2950683307 -16.0574312803 A 3.0 3.0 0 0 1 18.2950681199 -19.0574312803 L 21.2950681199 -19.0574312803 L 21.2950681199 -22.0574312803 L 18.2950681199 -22.0574312803 L 18.2950681199 -56.5574312803 L 21.2950681199 -56.5574312803 L 21.2950681199 -59.5574312803 L 18.2950681199 -59.5574312803 A 3.0 3.0 0 0 1 21.2950523722 -62.5574312802 L 33.0950832769 -62.5574312802 A 3.0 3.0 0 0 1 36.0950681199 -59.5574312803 L 33.0950681199 -59.5574312803 L 33.0950681199 -56.5574312803 L 36.0950681199 -56.5574312803 L 36.0950681199 -22.0574312803 " stroke="#0000ff" stroke-width="0.35 px" style="stroke-width:0.35;stroke-miterlimit:4;stroke-dasharray:none;fill:none;fill-rule: evenodd "/>
<title>joint_up</title>
</g>
</svg>