<?xml version="1.0"?>
<!DOCTYPE svg PUBLIC "-//W3C//DTD SVG 1.1//EN" "http://www.w3.org/Graphics/SVG/1.1/DTD/svg11.dtd">
<svg width="37.2061706069mm" height="106.998932762mm" viewBox="0 0 37.2061706069 106.998932762" xmlns="http://www.w3.org/2000/svg" version="1.1">
<g id="Sketch" transform="translate(12.647119,4.706728) scale(1,-1)">
<path id="Sketch_w0000"  d="M -5.9 -2.9 L 5.9 -2.9 L 5.9 -25.4 L -5.9 -25.4 L -5.9 -2.9 " stroke="#000000" stroke-width="0.35 px" style="stroke-width:0.35;stroke-miterlimit:4;stroke-dasharray:none;fill:none;fill-rule: evenodd "/>
<circle cx="0.0" cy="-28.3" r="1.2" stroke="#000000" stroke-width="0.35 px" style="stroke-width:0.35;stroke-miterlimit:4;stroke-dasharray:none;fill:none"/>
<path id="Sketch_w0002"  d="M 12.1568483453 -9.67638489746 A 12.2859474602 12.2859474602 0 1 1 -12.2823524378 -7.60280715201 A 140.0 140.0 0 0 1 20.6916777199 -101.290009133 A 2.0 2.0 0 0 1 24.0548018056 -99.2039903746 A 165.0 165.0 0 0 0 12.1568483453 -9.67638489748 " stroke="#000000" stroke-width="0.35 px" style="stroke-width:0.35;stroke-miterlimit:4;stroke-dasharray:none;fill:none;fill-rule: evenodd "/>
<path id="Sketch_w0003"  d="M -5.56409060337 -32.6202676207 L 5.10388035024 -30.8883804086 A 2.0 2.0 0 0 0 7.42435742013 -32.8704246839 A 168.0 168.0 0 0 1 8.08547162047 -48.4373831254 A 2.0 2.0 0 0 0 6.71456899191 -50.5158914653 L -0.631982719062 -52.9165090328 A 2.0 2.0 0 0 0 -3.16326607463 -51.6084104159 A 137.0 137.0 0 0 0 -7.21278657514 -34.9441264637 A 2.0 2.0 0 0 0 -5.56409060337 -32.6202676207 " stroke="#000000" stroke-width="0.35 px" style="stroke-width:0.35;stroke-miterlimit:4;stroke-dasharray:none;fill:none;fill-rule: evenodd "/>
<path id="Sketch_w0004"  d="M 0.645796353814 -56.6418872409 L 6.30390163383 -54.6084695013 A 2.0 2.0 0 0 0 8.96198886865 -56.2205280958 A 168.0 168.0 0 0 1 16.2499563351 -87.2726236095 A 1.0 1.0 0 0 0 14.4762167337 -88.1557599063 A 137.0 137.0 0 0 0 -0.549713875663 -59.2282502488 A 2.0 2.0 0 0 0 0.645796353814 -56.6418872409 " stroke="#000000" stroke-width="0.35 px" style="stroke-width:0.35;stroke-miterlimit:4;stroke-dasharray:none;fill:none;fill-rule: evenodd "/>
<circle cx="0.0" cy="0.0" r="1.2" stroke="#000000" stroke-width="0.35 px" style="stroke-width:0.35;stroke-miterlimit:4;stroke-dasharray:none;fill:none"/>
<title>tibia</title>
</g>
</svg>